{"asset":{"version":"2.0","copyright":"Mylove","generator":"CObj2Gltf@Mylove","extras":"未注册!仅供交流学习使用,未经许可不得用于商业活动！\n"},"scenes":[{"nodes":[0]}],"scene":0,"nodes":[{"mesh":0}],"meshes":[{"primitives":[{"attributes":{"NORMAL":1,"POSITION":2,"TEXCOORD_0":3},"indices":0,"mode":4,"material":0},{"attributes":{"NORMAL":5,"POSITION":6,"TEXCOORD_0":7},"indices":4,"mode":4,"material":1},{"attributes":{"NORMAL":9,"POSITION":10,"TEXCOORD_0":11},"indices":8,"mode":4,"material":2},{"attributes":{"NORMAL":13,"POSITION":14,"TEXCOORD_0":15},"indices":12,"mode":4,"material":3},{"attributes":{"NORMAL":17,"POSITION":18,"TEXCOORD_0":19},"indices":16,"mode":4,"material":4},{"attributes":{"NORMAL":21,"POSITION":22,"TEXCOORD_0":23},"indices":20,"mode":4,"material":5},{"attributes":{"NORMAL":25,"POSITION":26,"TEXCOORD_0":27},"indices":24,"mode":4,"material":6},{"attributes":{"NORMAL":29,"POSITION":30,"TEXCOORD_0":31},"indices":28,"mode":4,"material":7},{"attributes":{"NORMAL":33,"POSITION":34,"TEXCOORD_0":35},"indices":32,"mode":4,"material":8}]}],"accessors":[{"byteOffset":0,"bufferView":0,"count":309,"type":"SCALAR","componentType":5123,"max":[144],"min":[0]},{"byteOffset":0,"bufferView":1,"count":145,"type":"VEC3","componentType":5126,"max":[1.0,1.0,1.0],"min":[-0.987887978553772,-1.0,-6.835179805755615]},{"byteOffset":0,"bufferView":2,"count":145,"type":"VEC3","componentType":5126,"max":[653.8510131835938,74.04879760742188,578.4760131835938],"min":[157.19700622558595,0.0,365.9460144042969]},{"byteOffset":0,"bufferView":3,"count":145,"type":"VEC2","componentType":5126,"max":[33027.69921875,2915.31005859375],"min":[-33072.1015625,-22774.69921875]},{"byteOffset":618,"bufferView":0,"count":258,"type":"SCALAR","componentType":5123,"max":[113],"min":[0]},{"byteOffset":1740,"bufferView":1,"count":114,"type":"VEC3","componentType":5126,"max":[0.987887978553772,1.0,6.835179805755615],"min":[-1.0,-1.0,-1.0]},{"byteOffset":1740,"bufferView":2,"count":114,"type":"VEC3","componentType":5126,"max":[653.8510131835938,74.04879760742188,578.4760131835938],"min":[157.19700622558595,0.0,365.9460144042969]},{"byteOffset":1160,"bufferView":3,"count":114,"type":"VEC2","componentType":5126,"max":[32609.80078125,2915.31005859375],"min":[-25742.19921875,-22774.69921875]},{"byteOffset":1134,"bufferView":0,"count":948,"type":"SCALAR","componentType":5123,"max":[539],"min":[0]},{"byteOffset":3108,"bufferView":1,"count":540,"type":"VEC3","componentType":5126,"max":[1.0,1.0,8.202130317687989],"min":[-1.0,-1.0,-8.202130317687989]},{"byteOffset":3108,"bufferView":2,"count":540,"type":"VEC3","componentType":5126,"max":[295.3919982910156,16.054100036621095,553.697998046875],"min":[152.51100158691407,0.0,330.7430114746094]},{"byteOffset":2072,"bufferView":3,"count":540,"type":"VEC2","componentType":5126,"max":[0.1763010025024414,0.007022770121693611],"min":[-0.17457400262355805,-0.09401830285787583]},{"byteOffset":3030,"bufferView":0,"count":2691,"type":"SCALAR","componentType":5123,"max":[1458],"min":[0]},{"byteOffset":9588,"bufferView":1,"count":1459,"type":"VEC3","componentType":5126,"max":[1.0,1.0,7.689690113067627],"min":[-1.0,-1.0,-7.689690113067627]},{"byteOffset":9588,"bufferView":2,"count":1459,"type":"VEC3","componentType":5126,"max":[653.8510131835938,74.04879760742188,677.5490112304688],"min":[361.06500244140627,0.0,524.9329833984375]},{"byteOffset":6392,"bufferView":3,"count":1459,"type":"VEC2","componentType":5126,"max":[33027.69921875,2915.31005859375],"min":[-33072.1015625,-22774.69921875]},{"byteOffset":8412,"bufferView":0,"count":3408,"type":"SCALAR","componentType":5123,"max":[1971],"min":[0]},{"byteOffset":27096,"bufferView":1,"count":1972,"type":"VEC3","componentType":5126,"max":[1.0,1.0,8.543889999389649],"min":[-1.0,-1.0,-8.543889999389649]},{"byteOffset":27096,"bufferView":2,"count":1972,"type":"VEC3","componentType":5126,"max":[1029.2900390625,26.756799697875978,539.0960083007813],"min":[105.20800018310547,0.0,-0.00376418000087142]},{"byteOffset":18064,"bufferView":3,"count":1972,"type":"VEC2","componentType":5126,"max":[0.21456600725650788,0.1481959968805313],"min":[-0.21456600725650788,-0.0876305028796196]},{"byteOffset":15228,"bufferView":0,"count":1800,"type":"SCALAR","componentType":5123,"max":[971],"min":[0]},{"byteOffset":50760,"bufferView":1,"count":972,"type":"VEC3","componentType":5126,"max":[1.0,1.0,7.689690113067627],"min":[-1.0,-1.0,-7.689690113067627]},{"byteOffset":50760,"bufferView":2,"count":972,"type":"VEC3","componentType":5126,"max":[609.1929931640625,26.756799697875978,466.0950012207031],"min":[398.9339904785156,0.0,344.17401123046877]},{"byteOffset":33840,"bufferView":3,"count":972,"type":"VEC2","componentType":5126,"max":[0.061179399490356448,0.011704600416123867],"min":[-0.061179399490356448,-0.05569680035114288]},{"byteOffset":18828,"bufferView":0,"count":558,"type":"SCALAR","componentType":5123,"max":[305],"min":[0]},{"byteOffset":62424,"bufferView":1,"count":306,"type":"VEC3","componentType":5126,"max":[1.0,1.0,8.202520370483399],"min":[-1.0,-1.0,-8.202520370483399]},{"byteOffset":62424,"bufferView":2,"count":306,"type":"VEC3","componentType":5126,"max":[424.7590026855469,13.378399848937989,318.48199462890627],"min":[282.8340148925781,0.0,214.07400512695313]},{"byteOffset":41616,"bufferView":3,"count":306,"type":"VEC2","componentType":5126,"max":[0.11196699738502503,0.054548900574445727],"min":[-0.11196699738502503,0.0]},{"byteOffset":19944,"bufferView":0,"count":1140,"type":"SCALAR","componentType":5123,"max":[633],"min":[0]},{"byteOffset":66096,"bufferView":1,"count":634,"type":"VEC3","componentType":5126,"max":[1.0,1.0,8.202619552612305],"min":[-1.0,-1.0,-8.202619552612305]},{"byteOffset":66096,"bufferView":2,"count":634,"type":"VEC3","componentType":5126,"max":[162.1820068359375,16.054100036621095,631.7680053710938],"min":[-0.005986620206385851,0.0,432.4620056152344]},{"byteOffset":44064,"bufferView":3,"count":634,"type":"VEC2","componentType":5126,"max":[0.24022899568080903,0.007022770121693611],"min":[-0.2402459979057312,-0.1281690001487732]},{"byteOffset":22224,"bufferView":0,"count":2232,"type":"SCALAR","componentType":5123,"max":[1173],"min":[0]},{"byteOffset":73704,"bufferView":1,"count":1174,"type":"VEC3","componentType":5126,"max":[1.0,1.0,7.689280033111572],"min":[-1.0,-1.0,-7.689280033111572]},{"byteOffset":73704,"bufferView":2,"count":1174,"type":"VEC3","componentType":5126,"max":[338.7040100097656,16.054100036621095,521.25],"min":[157.19700622558595,0.0,392.2340087890625]},{"byteOffset":49136,"bufferView":3,"count":1174,"type":"VEC2","componentType":5126,"max":[0.16892899572849275,0.007022770121693611],"min":[-0.16732600331306458,-0.079823799431324]}],"materials":[{"pbrMetallicRoughness":{"baseColorFactor":[0.5019609928131104,0.5019609928131104,0.784313976764679,1.0],"metallicFactor":0.0,"roughnessFactor":0.8999999761581421},"emissiveFactor":[0.0,0.0,0.0],"alphaMode":"OPAQUE"},{"pbrMetallicRoughness":{"baseColorFactor":[0.8823530077934265,0.8823530077934265,0.784313976764679,1.0],"metallicFactor":0.0,"roughnessFactor":0.8999999761581421},"emissiveFactor":[0.0,0.0,0.0],"alphaMode":"OPAQUE"},{"pbrMetallicRoughness":{"baseColorFactor":[1.0,0.7529410123825073,0.7960780262947083,1.0],"metallicFactor":0.0,"roughnessFactor":0.8999999761581421},"emissiveFactor":[0.0,0.0,0.0],"alphaMode":"OPAQUE"},{"pbrMetallicRoughness":{"baseColorFactor":[1.0,0.8941180109977722,0.8823530077934265,1.0],"metallicFactor":0.0,"roughnessFactor":0.8999999761581421},"emissiveFactor":[0.0,0.0,0.0],"alphaMode":"OPAQUE"},{"pbrMetallicRoughness":{"baseColorFactor":[0.992156982421875,0.9607840180397034,0.9019610285758972,1.0],"metallicFactor":0.0,"roughnessFactor":0.8999999761581421},"emissiveFactor":[0.0,0.0,0.0],"alphaMode":"OPAQUE"},{"pbrMetallicRoughness":{"baseColorFactor":[0.5960779786109924,0.9843140244483948,0.5960779786109924,1.0],"metallicFactor":0.0,"roughnessFactor":0.8999999761581421},"emissiveFactor":[0.0,0.0,0.0],"alphaMode":"OPAQUE"},{"pbrMetallicRoughness":{"baseColorFactor":[0.2509799897670746,0.8784310221672058,0.8156859874725342,1.0],"metallicFactor":0.0,"roughnessFactor":0.8999999761581421},"emissiveFactor":[0.0,0.0,0.0],"alphaMode":"OPAQUE"},{"pbrMetallicRoughness":{"baseColorFactor":[0.5764709711074829,0.4392159879207611,0.8588240146636963,1.0],"metallicFactor":0.0,"roughnessFactor":0.8999999761581421},"emissiveFactor":[0.0,0.0,0.0],"alphaMode":"OPAQUE"},{"pbrMetallicRoughness":{"baseColorFactor":[0.5,0.5,0.5,1.0],"metallicFactor":0.0,"roughnessFactor":0.8999999761581421},"emissiveFactor":[0.0,0.0,0.0],"alphaMode":"OPAQUE"}],"bufferViews":[{"buffer":0,"byteLength":26688,"byteOffset":234112,"byteStride":2,"target":34963},{"buffer":0,"byteLength":87792,"byteOffset":87792,"byteStride":12,"target":34962},{"buffer":0,"byteLength":87792,"byteOffset":0,"byteStride":12,"target":34962},{"buffer":0,"byteLength":58528,"byteOffset":175584,"byteStride":8,"target":34962}],"buffers":[{"byteLength":260800,"uri":"data:application/octet-stream;base64,"}]}